<?xml version="1.0" encoding="utf-8"?>
<!-- Generator: Adobe Illustrator 16.0.0, SVG Export Plug-In . SVG Version: 6.00 Build 0)  -->
<!DOCTYPE svg PUBLIC "-//W3C//DTD SVG 1.1//EN" "http://www.w3.org/Graphics/SVG/1.1/DTD/svg11.dtd">
<svg version="1.1" id="Layer_1" xmlns="http://www.w3.org/2000/svg" xmlns:xlink="http://www.w3.org/1999/xlink" x="0px" y="0px"
	 width="551.643px" height="551.13px" viewBox="0 0 551.643 551.13" enable-background="new 0 0 551.643 551.13"
	 xml:space="preserve">
<circle fill="#C5E4E9" cx="276.078" cy="275.565" r="275.565"/>
<g>
	<path fill="#010101" d="M327.401,470.398c-22.687,0-31.635-13.49-34.95-21.531l-0.51-1.237H175.163V236.11h116.195
		c13.302,0,25.884,5.841,34.518,16.025l1.525,1.8l1.525-1.8c8.632-10.184,21.212-16.024,34.517-16.024h110.188v211.52H364.46
		l-0.547,1.126C359.986,456.839,350.021,470.398,327.401,470.398z M193.567,409.98h81.27c25.134,0,35.461,7.545,39.698,13.873
		l3.662,5.47V281.359c0-14.802-12.04-26.845-26.839-26.845h-97.791V409.98z M363.443,254.515c-14.801,0-26.842,12.042-26.842,26.845
		v147.172l3.573-4.556c7.284-9.286,20.67-13.995,39.785-13.995h75.269V254.515H363.443z"/>
</g>
<path fill="none" stroke="#010101" stroke-width="12" stroke-linecap="round" stroke-miterlimit="10" d="M326.605,225.326
	c-6.669-83.451-48.267-147.735-98.599-147.735c-54.975,0-99.541,76.687-99.541,171.285c0,50.791,12.852,96.411,33.261,127.779"/>
<path fill="none" stroke="#010101" stroke-width="12" stroke-linecap="round" stroke-miterlimit="10" d="M396.724,225.326
	c-11.478-83.452-83.059-147.735-169.667-147.735c-94.599,0-171.286,76.687-171.286,171.286c0,71.461,43.769,132.691,105.956,158.374
	"/>
<line fill="none" stroke="#010101" stroke-width="12" stroke-miterlimit="10" x1="63.726" y1="197.141" x2="389.314" y2="197.141"/>
<line fill="none" stroke="#010101" stroke-width="12" stroke-linecap="round" stroke-miterlimit="10" x1="71.649" y1="318.801" x2="162.375" y2="318.801"/>
<line fill="none" stroke="#010101" stroke-width="12" stroke-linecap="round" stroke-miterlimit="10" x1="227.057" y1="77.591" x2="227.057" y2="225.326"/>
<g>
</g>
<g>
</g>
<g>
</g>
<g>
</g>
<g>
</g>
<g>
</g>
</svg>
